<?xml version="1.0" standalone="no"?>
<!DOCTYPE svg PUBLIC "-//W3C//DTD SVG 20010904//EN"
 "http://www.w3.org/TR/2001/REC-SVG-20010904/DTD/svg10.dtd">
<svg version="1.0" xmlns="http://www.w3.org/2000/svg"
 width="424.000000pt" height="424.000000pt" viewBox="0 0 424.000000 424.000000"
 preserveAspectRatio="xMidYMid meet">
<metadata>
Created by potrace 1.11, written by Peter Selinger 2001-2013
</metadata>
<g transform="translate(0.000000,424.000000) scale(0.100000,-0.100000)"
fill="#000000" stroke="none">
<path d="M1900 4094 c-389 -69 -614 -159 -894 -357 -109 -77 -285 -241 -370
-346 -194 -237 -335 -531 -402 -836 -28 -126 -29 -139 -29 -405 0 -266 1 -279
29 -405 52 -239 153 -477 282 -671 91 -137 157 -215 283 -336 268 -259 599
-433 971 -509 104 -22 141 -24 380 -24 239 0 276 2 380 24 372 76 703 250 971
509 126 121 192 199 283 336 128 192 226 425 283 671 26 115 27 131 28 400 0
272 -1 284 -29 410 -52 239 -153 477 -282 671 -91 137 -157 215 -283 336 -263
255 -581 424 -948 505 -107 23 -141 26 -373 28 -140 2 -266 1 -280 -1z m790
-1519 c0 -702 -4 -1131 -11 -1193 -24 -221 -87 -390 -189 -504 -93 -104 -255
-194 -415 -229 -93 -21 -362 -18 -460 4 -251 58 -433 222 -514 465 -27 80 -51
235 -51 329 0 67 2 73 23 78 21 4 316 45 328 45 3 0 9 -37 13 -82 14 -177 54
-302 123 -378 57 -63 110 -95 193 -114 213 -51 431 37 507 202 56 119 55 113
60 1340 l5 1132 194 0 194 0 0 -1095z"/>
</g>
</svg>
